{"accessors" : [{"bufferView" : 0, "byteOffset" : 0, "componentType" : 5123, "count" : 72, "type" : "SCALAR", "max" : [52], "min" : [0]}, {"bufferView" : 1, "byteOffset" : 0, "componentType" : 5126, "count" : 53, "type" : "VEC3", "max" : [30, 116, 0], "min" : [0, 0, -40], "name" : "POSITION"}, {"bufferView" : 0, "byteOffset" : 144, "componentType" : 5123, "count" : 99, "type" : "SCALAR", "max" : [72], "min" : [0]}, {"bufferView" : 2, "byteOffset" : 0, "componentType" : 5126, "count" : 73, "type" : "VEC3", "max" : [30, 91, -40], "min" : [0, 35, -75], "name" : "POSITION"}, {"bufferView" : 2, "byteOffset" : 12, "componentType" : 5126, "count" : 73, "type" : "VEC2", "max" : [0.99853515625, -0], "min" : [0, -0.8970961570739746], "name" : "TEXCOORD_0"}, {"bufferView" : 2, "byteOffset" : 20, "componentType" : 5126, "count" : 73, "type" : "VEC3", "max" : [1.0000044107437134, 1.0000044107437134, 1.0000044107437134], "min" : [-1.0000044107437134, -0.7808722853660583, -1.0000044107437134], "name" : "NORMAL"}, {"bufferView" : 0, "byteOffset" : 344, "componentType" : 5123, "count" : 96, "type" : "SCALAR", "max" : [81], "min" : [0]}, {"bufferView" : 3, "byteOffset" : 0, "componentType" : 5126, "count" : 82, "type" : "VEC3", "max" : [25, 93.5, -50], "min" : [5, 91, -65], "name" : "POSITION"}, {"bufferView" : 3, "byteOffset" : 12, "componentType" : 5126, "count" : 82, "type" : "VEC2", "max" : [0.99853515625, -0], "min" : [0, -0.99853515625], "name" : "TEXCOORD_0"}, {"bufferView" : 3, "byteOffset" : 20, "componentType" : 5126, "count" : 82, "type" : "VEC3", "max" : [1.0000044107437134, 1.0000044107437134, 1.0000044107437134], "min" : [-1.0000044107437134, -1.0000044107437134, -1.0000044107437134], "name" : "NORMAL"}], "asset" : {"generator" : "Aspose.3D 21.9", "version" : "2.0"}, "buffers" : [{"uri" : "data:application/octet-stream;base64,", "byteLength" : 7656}], "bufferViews" : [{"buffer" : 0, "byteOffset" : 0, "byteLength" : 536, "target" : 34963}, {"buffer" : 0, "byteOffset" : 540, "byteLength" : 864, "byteStride" : 12, "target" : 34962}, {"buffer" : 0, "byteOffset" : 1408, "byteLength" : 3168, "byteStride" : 32, "target" : 34962}, {"buffer" : 0, "byteOffset" : 4580, "byteLength" : 3072, "byteStride" : 32, "target" : 34962}], "meshes" : [{"primitives" : [{"attributes" : {"POSITION" : 1}, "indices" : 0, "mode" : 4}], "name" : ""}, {"primitives" : [{"attributes" : {"POSITION" : 3, "TEXCOORD_0" : 4, "NORMAL" : 5}, "indices" : 2, "mode" : 4}], "name" : ""}, {"primitives" : [{"attributes" : {"POSITION" : 7, "TEXCOORD_0" : 8, "NORMAL" : 9}, "indices" : 6, "mode" : 4}], "name" : ""}], "nodes" : [{"mesh" : 0, "name" : "object_1"}, {"mesh" : 1, "name" : "object_2"}, {"mesh" : 2, "name" : "object_3"}], "scene" : 0, "scenes" : [{"nodes" : [0, 1, 2]}]}