{"accessors" : [{"bufferView" : 0, "byteOffset" : 0, "componentType" : 5123, "count" : 5694, "type" : "SCALAR", "max" : [4753], "min" : [0]}, {"bufferView" : 1, "byteOffset" : 0, "componentType" : 5126, "count" : 4754, "type" : "VEC3", "max" : [-257.5, 46.5, -695.0999755859375], "min" : [-261.5, -46.5, -699.0999755859375], "name" : "POSITION"}, {"bufferView" : 1, "byteOffset" : 12, "componentType" : 5126, "count" : 4754, "type" : "VEC3", "max" : [1.0000044107437134, 1.0000044107437134, 1.0000044107437134], "min" : [-1.0000044107437134, -1.0000044107437134, -1.0000044107437134], "name" : "NORMAL"}, {"bufferView" : 1, "byteOffset" : 24, "componentType" : 5126, "count" : 4754, "type" : "VEC2", "max" : [0.19186854362487793, -0], "min" : [0, -0.99853515625], "name" : "TEXCOORD_0"}, {"bufferView" : 0, "byteOffset" : 11388, "componentType" : 5123, "count" : 5688, "type" : "SCALAR", "max" : [4755], "min" : [0]}, {"bufferView" : 2, "byteOffset" : 0, "componentType" : 5126, "count" : 4756, "type" : "VEC3", "max" : [-257.5, 46.5, -700.9000244140625], "min" : [-261.5, -46.5, -704.9000244140625], "name" : "POSITION"}, {"bufferView" : 2, "byteOffset" : 12, "componentType" : 5126, "count" : 4756, "type" : "VEC3", "max" : [1.0000044107437134, 1.0000044107437134, 1.0000044107437134], "min" : [-1.0000044107437134, -1.0000044107437134, -1.0000044107437134], "name" : "NORMAL"}, {"bufferView" : 2, "byteOffset" : 24, "componentType" : 5126, "count" : 4756, "type" : "VEC2", "max" : [0.19186854362487793, -0], "min" : [0, -0.99853515625], "name" : "TEXCOORD_0"}, {"bufferView" : 0, "byteOffset" : 22764, "componentType" : 5123, "count" : 492, "type" : "SCALAR", "max" : [424], "min" : [0]}, {"bufferView" : 3, "byteOffset" : 0, "componentType" : 5126, "count" : 425, "type" : "VEC3", "max" : [-773.6603393554688, 46.5, -1319.64990234375], "min" : [-775.2603759765625, -46.5, -1321.245361328125], "name" : "POSITION"}, {"bufferView" : 3, "byteOffset" : 12, "componentType" : 5126, "count" : 425, "type" : "VEC3", "max" : [1.0000044107437134, 1.0000044107437134, 0.9972082376480103], "min" : [-1.0000044107437134, -1.0000044107437134, -0.9972082376480103], "name" : "NORMAL"}, {"bufferView" : 3, "byteOffset" : 24, "componentType" : 5126, "count" : 425, "type" : "VEC2", "max" : [1, -0], "min" : [0, -1], "name" : "TEXCOORD_0"}], "asset" : {"generator" : "Aspose.3D 21.11", "version" : "2.0"}, "buffers" : [{"uri" : "data:application/octet-stream;base64,", "byteLength" : 403732}], "bufferViews" : [{"buffer" : 0, "byteOffset" : 0, "byteLength" : 23748, "target" : 34963}, {"buffer" : 0, "byteOffset" : 23752, "byteLength" : 182208, "byteStride" : 32, "target" : 34962}, {"buffer" : 0, "byteOffset" : 205964, "byteLength" : 182016, "byteStride" : 32, "target" : 34962}, {"buffer" : 0, "byteOffset" : 387984, "byteLength" : 15744, "byteStride" : 32, "target" : 34962}], "cameras" : [{"perspective" : {"aspectRatio" : 1.3333333333333333, "yfov" : 0.43833943764363487, "zfar" : 4000, "znear" : 10}, "type" : "perspective", "name" : "NodeAttribute"}, {"perspective" : {"aspectRatio" : 1.3333333333333333, "yfov" : 0.43833943764363487, "zfar" : 4000, "znear" : 10}, "type" : "perspective", "name" : "NodeAttribute"}, {"perspective" : {"aspectRatio" : 1.3333333333333333, "yfov" : 0.43833943764363487, "zfar" : 4000, "znear" : 10}, "type" : "perspective", "name" : "NodeAttribute"}, {"perspective" : {"aspectRatio" : 1.3333333333333333, "yfov" : 0.43833943764363487, "zfar" : 4000, "znear" : 10}, "type" : "perspective", "name" : "NodeAttribute"}], "materials" : [{"name" : "", "pbrMetallicRoughness" : {"baseColorFactor" : [0.48627450980392156, 0, 0.027450980392156862, 1], "metallicFactor" : 0, "roughnessFactor" : 0}, "emissiveFactor" : [0, 0, 0], "alphaMode" : "OPAQUE", "doubleSided" : false}, {"name" : "", "pbrMetallicRoughness" : {"baseColorFactor" : [0.48627450980392156, 0, 0.027450980392156862, 1], "metallicFactor" : 0, "roughnessFactor" : 0}, "emissiveFactor" : [0, 0, 0], "alphaMode" : "OPAQUE", "doubleSided" : false}, {"name" : "", "pbrMetallicRoughness" : {"baseColorFactor" : [0.48627450980392156, 0, 0.027450980392156862, 1], "metallicFactor" : 0, "roughnessFactor" : 0}, "emissiveFactor" : [0, 0, 0], "alphaMode" : "OPAQUE", "doubleSided" : false}], "meshes" : [{"primitives" : [{"attributes" : {"POSITION" : 1, "NORMAL" : 2, "TEXCOORD_0" : 3}, "indices" : 0, "material" : 0, "mode" : 4}], "name" : "Geometry"}, {"primitives" : [{"attributes" : {"POSITION" : 5, "NORMAL" : 6, "TEXCOORD_0" : 7}, "indices" : 4, "material" : 1, "mode" : 4}], "name" : "Geometry"}, {"primitives" : [{"attributes" : {"POSITION" : 9, "NORMAL" : 10, "TEXCOORD_0" : 11}, "indices" : 8, "material" : 2, "mode" : 4}], "name" : "Geometry"}], "nodes" : [{"mesh" : 0, "name" : "Model"}, {"mesh" : 1, "name" : "Model"}, {"mesh" : 2, "name" : "Model"}, {"children" : [0, 1, 2], "name" : "Model"}, {"children" : [3], "name" : "Model"}, {"children" : [4], "name" : "Model"}, {"children" : [5], "name" : "Model"}, {"children" : [6], "name" : "Model"}, {"camera" : 0, "matrix" : [-0.4908457609938961, -0.8566148115675276, -0.1590015833803276, 0, 0.662779692916422, -0.24867297630987517, -0.70631779639961, 0, 0.5655028890924745, -0.45207611688333704, 0.6898069780538232, 0, 257.62643349183367, 1277.7492196641838, 282.44598656145945, 1], "name" : "Model"}, {"camera" : 1, "matrix" : [2.220446049250313E-16, 0, -1, 0, 0, 1, 0, 0, 1, 0, 2.220446049250313E-16, 0, -156.6836694128051, 718.5414440910682, 16632.85842701017, 1], "name" : "Model"}, {"camera" : 2, "matrix" : [2.220446049250313E-16, 1, 0, 0, -1, 2.220446049250313E-16, 0, 0, 0, 0, 1, 0, -156.6836694128051, -1855.495259034004, 70.67215446650853, 1], "name" : "Model"}, {"camera" : 3, "matrix" : [1, 0, 0, 0, 0, -1, 1.2246467991473532E-16, 0, 0, -1.2246467991473532E-16, -1, 0, 1545.7797803691221, 718.5414440910682, 70.67215446650853, 1], "name" : "Model"}], "scene" : 0, "scenes" : [{"nodes" : [7, 8, 9, 10, 11]}]}