{"accessors" : [{"bufferView" : 0, "byteOffset" : 0, "componentType" : 5123, "count" : 492, "type" : "SCALAR", "max" : [424], "min" : [0]}, {"bufferView" : 1, "byteOffset" : 0, "componentType" : 5126, "count" : 425, "type" : "VEC3", "max" : [136.5, -44.10129928588867, -347.89990234375], "min" : [-161.5, -44.89906311035156, -348.6999206542969], "name" : "POSITION"}, {"bufferView" : 1, "byteOffset" : 12, "componentType" : 5126, "count" : 425, "type" : "VEC3", "max" : [1.0000044107437134, 0.9972082376480103, 1.0000044107437134], "min" : [-1.0000044107437134, -0.9972082376480103, -1.0000044107437134], "name" : "NORMAL"}, {"bufferView" : 1, "byteOffset" : 24, "componentType" : 5126, "count" : 425, "type" : "VEC2", "max" : [1, -0], "min" : [0, -1], "name" : "TEXCOORD_0"}, {"bufferView" : 0, "byteOffset" : 984, "componentType" : 5123, "count" : 492, "type" : "SCALAR", "max" : [424], "min" : [0]}, {"bufferView" : 2, "byteOffset" : 0, "componentType" : 5126, "count" : 425, "type" : "VEC3", "max" : [136.5, -44.10129928588867, -351.2998962402344], "min" : [-161.5, -44.89906311035156, -352.09991455078125], "name" : "POSITION"}, {"bufferView" : 2, "byteOffset" : 12, "componentType" : 5126, "count" : 425, "type" : "VEC3", "max" : [1.0000044107437134, 0.9972082376480103, 1.0000044107437134], "min" : [-1.0000044107437134, -0.9972082376480103, -1.0000044107437134], "name" : "NORMAL"}, {"bufferView" : 2, "byteOffset" : 24, "componentType" : 5126, "count" : 425, "type" : "VEC2", "max" : [1, -0], "min" : [0, -1], "name" : "TEXCOORD_0"}, {"bufferView" : 0, "byteOffset" : 1968, "componentType" : 5123, "count" : 492, "type" : "SCALAR", "max" : [424], "min" : [0]}, {"bufferView" : 3, "byteOffset" : 0, "componentType" : 5126, "count" : 425, "type" : "VEC3", "max" : [136.5, -29.101299285888672, -345.09991455078125], "min" : [-161.5, -29.899063110351562, -345.89990234375], "name" : "POSITION"}, {"bufferView" : 3, "byteOffset" : 12, "componentType" : 5126, "count" : 425, "type" : "VEC3", "max" : [1.0000044107437134, 0.9972082376480103, 1.0000044107437134], "min" : [-1.0000044107437134, -0.9972082376480103, -1.0000044107437134], "name" : "NORMAL"}, {"bufferView" : 3, "byteOffset" : 24, "componentType" : 5126, "count" : 425, "type" : "VEC2", "max" : [1, -0], "min" : [0, -1], "name" : "TEXCOORD_0"}, {"bufferView" : 0, "byteOffset" : 2952, "componentType" : 5123, "count" : 492, "type" : "SCALAR", "max" : [424], "min" : [0]}, {"bufferView" : 4, "byteOffset" : 0, "componentType" : 5126, "count" : 425, "type" : "VEC3", "max" : [136.5, -29.101299285888672, -354.09991455078125], "min" : [-161.5, -29.899063110351562, -354.89990234375], "name" : "POSITION"}, {"bufferView" : 4, "byteOffset" : 12, "componentType" : 5126, "count" : 425, "type" : "VEC3", "max" : [1.0000044107437134, 0.9972082376480103, 1.0000044107437134], "min" : [-1.0000044107437134, -0.9972082376480103, -1.0000044107437134], "name" : "NORMAL"}, {"bufferView" : 4, "byteOffset" : 24, "componentType" : 5126, "count" : 425, "type" : "VEC2", "max" : [1, -0], "min" : [0, -1], "name" : "TEXCOORD_0"}, {"bufferView" : 0, "byteOffset" : 3936, "componentType" : 5123, "count" : 492, "type" : "SCALAR", "max" : [424], "min" : [0]}, {"bufferView" : 5, "byteOffset" : 0, "componentType" : 5126, "count" : 425, "type" : "VEC3", "max" : [136.5, -14.101299285888672, -345.09991455078125], "min" : [-161.5, -14.899062156677246, -345.89990234375], "name" : "POSITION"}, {"bufferView" : 5, "byteOffset" : 12, "componentType" : 5126, "count" : 425, "type" : "VEC3", "max" : [1.0000044107437134, 0.9972082376480103, 1.0000044107437134], "min" : [-1.0000044107437134, -0.9972082376480103, -1.0000044107437134], "name" : "NORMAL"}, {"bufferView" : 5, "byteOffset" : 24, "componentType" : 5126, "count" : 425, "type" : "VEC2", "max" : [1, -0], "min" : [0, -1], "name" : "TEXCOORD_0"}, {"bufferView" : 0, "byteOffset" : 4920, "componentType" : 5123, "count" : 492, "type" : "SCALAR", "max" : [424], "min" : [0]}, {"bufferView" : 6, "byteOffset" : 0, "componentType" : 5126, "count" : 425, "type" : "VEC3", "max" : [136.5, -14.101299285888672, -354.09991455078125], "min" : [-161.5, -14.899062156677246, -354.89990234375], "name" : "POSITION"}, {"bufferView" : 6, "byteOffset" : 12, "componentType" : 5126, "count" : 425, "type" : "VEC3", "max" : [1.0000044107437134, 0.9972082376480103, 1.0000044107437134], "min" : [-1.0000044107437134, -0.9972082376480103, -1.0000044107437134], "name" : "NORMAL"}, {"bufferView" : 6, "byteOffset" : 24, "componentType" : 5126, "count" : 425, "type" : "VEC2", "max" : [1, -0], "min" : [0, -1], "name" : "TEXCOORD_0"}, {"bufferView" : 0, "byteOffset" : 5904, "componentType" : 5123, "count" : 492, "type" : "SCALAR", "max" : [424], "min" : [0]}, {"bufferView" : 7, "byteOffset" : 0, "componentType" : 5126, "count" : 425, "type" : "VEC3", "max" : [136.5, 0.8987004160881042, -345.09991455078125], "min" : [-161.5, 0.10093739628791809, -345.89990234375], "name" : "POSITION"}, {"bufferView" : 7, "byteOffset" : 12, "componentType" : 5126, "count" : 425, "type" : "VEC3", "max" : [1.0000044107437134, 0.9972082376480103, 1.0000044107437134], "min" : [-1.0000044107437134, -0.9972082376480103, -1.0000044107437134], "name" : "NORMAL"}, {"bufferView" : 7, "byteOffset" : 24, "componentType" : 5126, "count" : 425, "type" : "VEC2", "max" : [1, -0], "min" : [0, -1], "name" : "TEXCOORD_0"}, {"bufferView" : 0, "byteOffset" : 6888, "componentType" : 5123, "count" : 492, "type" : "SCALAR", "max" : [424], "min" : [0]}, {"bufferView" : 8, "byteOffset" : 0, "componentType" : 5126, "count" : 425, "type" : "VEC3", "max" : [136.5, 0.8987004160881042, -354.09991455078125], "min" : [-161.5, 0.10093739628791809, -354.89990234375], "name" : "POSITION"}, {"bufferView" : 8, "byteOffset" : 12, "componentType" : 5126, "count" : 425, "type" : "VEC3", "max" : [1.0000044107437134, 0.9972082376480103, 1.0000044107437134], "min" : [-1.0000044107437134, -0.9972082376480103, -1.0000044107437134], "name" : "NORMAL"}, {"bufferView" : 8, "byteOffset" : 24, "componentType" : 5126, "count" : 425, "type" : "VEC2", "max" : [1, -0], "min" : [0, -1], "name" : "TEXCOORD_0"}, {"bufferView" : 0, "byteOffset" : 7872, "componentType" : 5123, "count" : 492, "type" : "SCALAR", "max" : [424], "min" : [0]}, {"bufferView" : 9, "byteOffset" : 0, "componentType" : 5126, "count" : 425, "type" : "VEC3", "max" : [136.5, 15.898700714111328, -345.09991455078125], "min" : [-161.5, 15.100937843322754, -345.89990234375], "name" : "POSITION"}, {"bufferView" : 9, "byteOffset" : 12, "componentType" : 5126, "count" : 425, "type" : "VEC3", "max" : [1.0000044107437134, 0.9972082376480103, 1.0000044107437134], "min" : [-1.0000044107437134, -0.9972082376480103, -1.0000044107437134], "name" : "NORMAL"}, {"bufferView" : 9, "byteOffset" : 24, "componentType" : 5126, "count" : 425, "type" : "VEC2", "max" : [1, -0], "min" : [0, -1], "name" : "TEXCOORD_0"}, {"bufferView" : 0, "byteOffset" : 8856, "componentType" : 5123, "count" : 492, "type" : "SCALAR", "max" : [424], "min" : [0]}, {"bufferView" : 10, "byteOffset" : 0, "componentType" : 5126, "count" : 425, "type" : "VEC3", "max" : [136.5, 15.898700714111328, -354.09991455078125], "min" : [-161.5, 15.100937843322754, -354.89990234375], "name" : "POSITION"}, {"bufferView" : 10, "byteOffset" : 12, "componentType" : 5126, "count" : 425, "type" : "VEC3", "max" : [1.0000044107437134, 0.9972082376480103, 1.0000044107437134], "min" : [-1.0000044107437134, -0.9972082376480103, -1.0000044107437134], "name" : "NORMAL"}, {"bufferView" : 10, "byteOffset" : 24, "componentType" : 5126, "count" : 425, "type" : "VEC2", "max" : [1, -0], "min" : [0, -1], "name" : "TEXCOORD_0"}, {"bufferView" : 0, "byteOffset" : 9840, "componentType" : 5123, "count" : 492, "type" : "SCALAR", "max" : [424], "min" : [0]}, {"bufferView" : 11, "byteOffset" : 0, "componentType" : 5126, "count" : 425, "type" : "VEC3", "max" : [136.5, 30.898700714111328, -345.09991455078125], "min" : [-161.5, 30.100936889648438, -345.89990234375], "name" : "POSITION"}, {"bufferView" : 11, "byteOffset" : 12, "componentType" : 5126, "count" : 425, "type" : "VEC3", "max" : [1.0000044107437134, 0.9972082376480103, 1.0000044107437134], "min" : [-1.0000044107437134, -0.9972082376480103, -1.0000044107437134], "name" : "NORMAL"}, {"bufferView" : 11, "byteOffset" : 24, "componentType" : 5126, "count" : 425, "type" : "VEC2", "max" : [1, -0], "min" : [0, -1], "name" : "TEXCOORD_0"}, {"bufferView" : 0, "byteOffset" : 10824, "componentType" : 5123, "count" : 492, "type" : "SCALAR", "max" : [424], "min" : [0]}, {"bufferView" : 12, "byteOffset" : 0, "componentType" : 5126, "count" : 425, "type" : "VEC3", "max" : [136.5, 30.898700714111328, -354.09991455078125], "min" : [-161.5, 30.100936889648438, -354.89990234375], "name" : "POSITION"}, {"bufferView" : 12, "byteOffset" : 12, "componentType" : 5126, "count" : 425, "type" : "VEC3", "max" : [1.0000044107437134, 0.9972082376480103, 1.0000044107437134], "min" : [-1.0000044107437134, -0.9972082376480103, -1.0000044107437134], "name" : "NORMAL"}, {"bufferView" : 12, "byteOffset" : 24, "componentType" : 5126, "count" : 425, "type" : "VEC2", "max" : [1, -0], "min" : [0, -1], "name" : "TEXCOORD_0"}], "asset" : {"generator" : "Aspose.3D 21.11", "version" : "2.0"}, "buffers" : [{"uri" : "data:application/octet-stream;base64,", "byteLength" : 200788}], "bufferViews" : [{"buffer" : 0, "byteOffset" : 0, "byteLength" : 11808, "target" : 34963}, {"buffer" : 0, "byteOffset" : 11812, "byteLength" : 15744, "byteStride" : 32, "target" : 34962}, {"buffer" : 0, "byteOffset" : 27560, "byteLength" : 15744, "byteStride" : 32, "target" : 34962}, {"buffer" : 0, "byteOffset" : 43308, "byteLength" : 15744, "byteStride" : 32, "target" : 34962}, {"buffer" : 0, "byteOffset" : 59056, "byteLength" : 15744, "byteStride" : 32, "target" : 34962}, {"buffer" : 0, "byteOffset" : 74804, "byteLength" : 15744, "byteStride" : 32, "target" : 34962}, {"buffer" : 0, "byteOffset" : 90552, "byteLength" : 15744, "byteStride" : 32, "target" : 34962}, {"buffer" : 0, "byteOffset" : 106300, "byteLength" : 15744, "byteStride" : 32, "target" : 34962}, {"buffer" : 0, "byteOffset" : 122048, "byteLength" : 15744, "byteStride" : 32, "target" : 34962}, {"buffer" : 0, "byteOffset" : 137796, "byteLength" : 15744, "byteStride" : 32, "target" : 34962}, {"buffer" : 0, "byteOffset" : 153544, "byteLength" : 15744, "byteStride" : 32, "target" : 34962}, {"buffer" : 0, "byteOffset" : 169292, "byteLength" : 15744, "byteStride" : 32, "target" : 34962}, {"buffer" : 0, "byteOffset" : 185040, "byteLength" : 15744, "byteStride" : 32, "target" : 34962}], "cameras" : [{"perspective" : {"aspectRatio" : 1.3333333333333333, "yfov" : 0.43833943764363487, "zfar" : 4000, "znear" : 10}, "type" : "perspective", "name" : "Perspective"}, {"perspective" : {"aspectRatio" : 1.3333333333333333, "yfov" : 0.43833943764363487, "zfar" : 4000, "znear" : 10}, "type" : "perspective", "name" : "Top"}, {"perspective" : {"aspectRatio" : 1.3333333333333333, "yfov" : 0.43833943764363487, "zfar" : 4000, "znear" : 10}, "type" : "perspective", "name" : "Front"}, {"perspective" : {"aspectRatio" : 1.3333333333333333, "yfov" : 0.43833943764363487, "zfar" : 4000, "znear" : 10}, "type" : "perspective", "name" : "Right"}], "materials" : [{"name" : "", "pbrMetallicRoughness" : {"baseColorFactor" : [0.48627450980392156, 0, 0.027450980392156862, 1], "metallicFactor" : 0, "roughnessFactor" : 0}, "emissiveFactor" : [0, 0, 0], "alphaMode" : "OPAQUE", "doubleSided" : false}, {"name" : "", "pbrMetallicRoughness" : {"baseColorFactor" : [0.48627450980392156, 0, 0.027450980392156862, 1], "metallicFactor" : 0, "roughnessFactor" : 0}, "emissiveFactor" : [0, 0, 0], "alphaMode" : "OPAQUE", "doubleSided" : false}, {"name" : "", "pbrMetallicRoughness" : {"baseColorFactor" : [0.48627450980392156, 0, 0.027450980392156862, 1], "metallicFactor" : 0, "roughnessFactor" : 0}, "emissiveFactor" : [0, 0, 0], "alphaMode" : "OPAQUE", "doubleSided" : false}, {"name" : "", "pbrMetallicRoughness" : {"baseColorFactor" : [0.48627450980392156, 0, 0.027450980392156862, 1], "metallicFactor" : 0, "roughnessFactor" : 0}, "emissiveFactor" : [0, 0, 0], "alphaMode" : "OPAQUE", "doubleSided" : false}, {"name" : "", "pbrMetallicRoughness" : {"baseColorFactor" : [0.48627450980392156, 0, 0.027450980392156862, 1], "metallicFactor" : 0, "roughnessFactor" : 0}, "emissiveFactor" : [0, 0, 0], "alphaMode" : "OPAQUE", "doubleSided" : false}, {"name" : "", "pbrMetallicRoughness" : {"baseColorFactor" : [0.48627450980392156, 0, 0.027450980392156862, 1], "metallicFactor" : 0, "roughnessFactor" : 0}, "emissiveFactor" : [0, 0, 0], "alphaMode" : "OPAQUE", "doubleSided" : false}, {"name" : "", "pbrMetallicRoughness" : {"baseColorFactor" : [0.48627450980392156, 0, 0.027450980392156862, 1], "metallicFactor" : 0, "roughnessFactor" : 0}, "emissiveFactor" : [0, 0, 0], "alphaMode" : "OPAQUE", "doubleSided" : false}, {"name" : "", "pbrMetallicRoughness" : {"baseColorFactor" : [0.48627450980392156, 0, 0.027450980392156862, 1], "metallicFactor" : 0, "roughnessFactor" : 0}, "emissiveFactor" : [0, 0, 0], "alphaMode" : "OPAQUE", "doubleSided" : false}, {"name" : "", "pbrMetallicRoughness" : {"baseColorFactor" : [0.48627450980392156, 0, 0.027450980392156862, 1], "metallicFactor" : 0, "roughnessFactor" : 0}, "emissiveFactor" : [0, 0, 0], "alphaMode" : "OPAQUE", "doubleSided" : false}, {"name" : "", "pbrMetallicRoughness" : {"baseColorFactor" : [0.48627450980392156, 0, 0.027450980392156862, 1], "metallicFactor" : 0, "roughnessFactor" : 0}, "emissiveFactor" : [0, 0, 0], "alphaMode" : "OPAQUE", "doubleSided" : false}, {"name" : "", "pbrMetallicRoughness" : {"baseColorFactor" : [0.48627450980392156, 0, 0.027450980392156862, 1], "metallicFactor" : 0, "roughnessFactor" : 0}, "emissiveFactor" : [0, 0, 0], "alphaMode" : "OPAQUE", "doubleSided" : false}, {"name" : "", "pbrMetallicRoughness" : {"baseColorFactor" : [0.48627450980392156, 0, 0.027450980392156862, 1], "metallicFactor" : 0, "roughnessFactor" : 0}, "emissiveFactor" : [0, 0, 0], "alphaMode" : "OPAQUE", "doubleSided" : false}], "meshes" : [{"primitives" : [{"attributes" : {"POSITION" : 1, "NORMAL" : 2, "TEXCOORD_0" : 3}, "indices" : 0, "material" : 0, "mode" : 4}], "name" : "Object_1"}, {"primitives" : [{"attributes" : {"POSITION" : 5, "NORMAL" : 6, "TEXCOORD_0" : 7}, "indices" : 4, "material" : 1, "mode" : 4}], "name" : "Object_2"}, {"primitives" : [{"attributes" : {"POSITION" : 9, "NORMAL" : 10, "TEXCOORD_0" : 11}, "indices" : 8, "material" : 2, "mode" : 4}], "name" : "Object_3"}, {"primitives" : [{"attributes" : {"POSITION" : 13, "NORMAL" : 14, "TEXCOORD_0" : 15}, "indices" : 12, "material" : 3, "mode" : 4}], "name" : "Object_4"}, {"primitives" : [{"attributes" : {"POSITION" : 17, "NORMAL" : 18, "TEXCOORD_0" : 19}, "indices" : 16, "material" : 4, "mode" : 4}], "name" : "Object_5"}, {"primitives" : [{"attributes" : {"POSITION" : 21, "NORMAL" : 22, "TEXCOORD_0" : 23}, "indices" : 20, "material" : 5, "mode" : 4}], "name" : "Object_6"}, {"primitives" : [{"attributes" : {"POSITION" : 25, "NORMAL" : 26, "TEXCOORD_0" : 27}, "indices" : 24, "material" : 6, "mode" : 4}], "name" : "Object_7"}, {"primitives" : [{"attributes" : {"POSITION" : 29, "NORMAL" : 30, "TEXCOORD_0" : 31}, "indices" : 28, "material" : 7, "mode" : 4}], "name" : "Object_8"}, {"primitives" : [{"attributes" : {"POSITION" : 33, "NORMAL" : 34, "TEXCOORD_0" : 35}, "indices" : 32, "material" : 8, "mode" : 4}], "name" : "Object_9"}, {"primitives" : [{"attributes" : {"POSITION" : 37, "NORMAL" : 38, "TEXCOORD_0" : 39}, "indices" : 36, "material" : 9, "mode" : 4}], "name" : "Object_10"}, {"primitives" : [{"attributes" : {"POSITION" : 41, "NORMAL" : 42, "TEXCOORD_0" : 43}, "indices" : 40, "material" : 10, "mode" : 4}], "name" : "Object_11"}, {"primitives" : [{"attributes" : {"POSITION" : 45, "NORMAL" : 46, "TEXCOORD_0" : 47}, "indices" : 44, "material" : 11, "mode" : 4}], "name" : "Object_12"}], "nodes" : [{"mesh" : 0, "name" : "Object_1"}, {"mesh" : 1, "name" : "Object_2"}, {"mesh" : 2, "name" : "Object_3"}, {"mesh" : 3, "name" : "Object_4"}, {"mesh" : 4, "name" : "Object_5"}, {"mesh" : 5, "name" : "Object_6"}, {"mesh" : 6, "name" : "Object_7"}, {"mesh" : 7, "name" : "Object_8"}, {"mesh" : 8, "name" : "Object_9"}, {"mesh" : 9, "name" : "Object_10"}, {"mesh" : 10, "name" : "Object_11"}, {"mesh" : 11, "name" : "Object_12"}, {"children" : [0, 1, 2, 3, 4, 5, 6, 7, 8, 9, 10, 11], "name" : "F"}, {"children" : [12], "name" : "Horizontale Eisen"}, {"children" : [13], "name" : "Pipe"}, {"children" : [14], "name" : "Bewehrung_2"}, {"children" : [15], "name" : "Wandscheibe"}, {"camera" : 0, "matrix" : [-0.7030494169694661, -0.7003896041149192, -0.12319058302743921, 0, 0.4406948964213703, -0.2931366407508047, -0.8484450000545064, 0, 0.5581303840206617, -0.650788223846345, 0.51474766841227, 0, 715.3137715882741, 1034.7896349211983, 343.9693962653949, 1], "name" : "Perspective"}, {"camera" : 1, "matrix" : [2.220446049250313E-16, 0, -1, 0, 0, 1, 0, 0, 1, 0, 2.220446049250313E-16, 0, -58.465692013983045, -139.94843673947258, 16807.95442859716, 1], "name" : "Top"}, {"camera" : 2, "matrix" : [2.220446049250313E-16, 1, 0, 0, -1, 2.220446049250313E-16, 0, 0, 0, 0, 1, 0, -58.465692013983045, -2964.0256508509, -4.272354932858434, 1], "name" : "Front"}, {"camera" : 3, "matrix" : [1, 0, 0, 0, 0, -1, 1.2246467991473532E-16, 0, 0, -1.2246467991473532E-16, -1, 0, 1643.9977577679406, -139.94843673947258, -4.272354932858434, 1], "name" : "Right"}], "scene" : 0, "scenes" : [{"nodes" : [16, 17, 18, 19, 20]}]}