{"accessors" : [{"bufferView" : 0, "byteOffset" : 0, "componentType" : 5123, "count" : 19860, "type" : "SCALAR", "max" : [16461], "min" : [0]}, {"bufferView" : 1, "byteOffset" : 0, "componentType" : 5126, "count" : 16462, "type" : "VEC3", "max" : [135.6999969482422, 43.900001525878906, -351.70001220703125], "min" : [-158.10000610351562, -30.100000381469727, -353.70001220703125], "name" : "POSITION"}, {"bufferView" : 1, "byteOffset" : 12, "componentType" : 5126, "count" : 16462, "type" : "VEC3", "max" : [1.0000044107437134, 1.0000044107437134, 1.0000044107437134], "min" : [-1.0000044107437134, -1.0000044107437134, -1.0000044107437134], "name" : "NORMAL"}, {"bufferView" : 1, "byteOffset" : 24, "componentType" : 5126, "count" : 16462, "type" : "VEC2", "max" : [0.11814047396183014, -0], "min" : [0, -0.99853515625], "name" : "TEXCOORD_0"}, {"bufferView" : 0, "byteOffset" : 39720, "componentType" : 5123, "count" : 19860, "type" : "SCALAR", "max" : [16458], "min" : [0]}, {"bufferView" : 2, "byteOffset" : 0, "componentType" : 5126, "count" : 16459, "type" : "VEC3", "max" : [135.6999969482422, 43.900001525878906, -346.29998779296875], "min" : [-158.10000610351562, -30.100000381469727, -348.29998779296875], "name" : "POSITION"}, {"bufferView" : 2, "byteOffset" : 12, "componentType" : 5126, "count" : 16459, "type" : "VEC3", "max" : [1.0000044107437134, 1.0000044107437134, 1.0000044107437134], "min" : [-1.0000044107437134, -1.0000044107437134, -1.0000044107437134], "name" : "NORMAL"}, {"bufferView" : 2, "byteOffset" : 24, "componentType" : 5126, "count" : 16459, "type" : "VEC2", "max" : [0.11814047396183014, -0], "min" : [0, -0.99853515625], "name" : "TEXCOORD_0"}, {"bufferView" : 0, "byteOffset" : 79440, "componentType" : 5123, "count" : 13770, "type" : "SCALAR", "max" : [11421], "min" : [0]}, {"bufferView" : 3, "byteOffset" : 0, "componentType" : 5126, "count" : 11422, "type" : "VEC3", "max" : [131.6999969482422, 39.900001525878906, -352.1000061035156], "min" : [-107.30000305175781, -19.100000381469727, -354.1000061035156], "name" : "POSITION"}, {"bufferView" : 3, "byteOffset" : 12, "componentType" : 5126, "count" : 11422, "type" : "VEC3", "max" : [1.0000044107437134, 1.0000044107437134, 1.0000044107437134], "min" : [-1.0000044107437134, -1.0000044107437134, -1.0000044107437134], "name" : "NORMAL"}, {"bufferView" : 3, "byteOffset" : 24, "componentType" : 5126, "count" : 11422, "type" : "VEC2", "max" : [0.08918735384941101, -0], "min" : [0, -0.99853515625], "name" : "TEXCOORD_0"}, {"bufferView" : 0, "byteOffset" : 106980, "componentType" : 5123, "count" : 13746, "type" : "SCALAR", "max" : [11404], "min" : [0]}, {"bufferView" : 4, "byteOffset" : 0, "componentType" : 5126, "count" : 11405, "type" : "VEC3", "max" : [131.6999969482422, 39.900001525878906, -345.8999938964844], "min" : [-107.30000305175781, -19.100000381469727, -347.8999938964844], "name" : "POSITION"}, {"bufferView" : 4, "byteOffset" : 12, "componentType" : 5126, "count" : 11405, "type" : "VEC3", "max" : [1.0000044107437134, 1.0000044107437134, 1.0000044107437134], "min" : [-1.0000044107437134, -1.0000044107437134, -1.0000044107437134], "name" : "NORMAL"}, {"bufferView" : 4, "byteOffset" : 24, "componentType" : 5126, "count" : 11405, "type" : "VEC2", "max" : [0.08918735384941101, -0], "min" : [0, -0.99853515625], "name" : "TEXCOORD_0"}], "asset" : {"generator" : "Aspose.3D 21.11", "version" : "2.0"}, "buffers" : [{"uri" : "data:application/octet-stream;base64,", "byteLength" : 2286044}], "bufferViews" : [{"buffer" : 0, "byteOffset" : 0, "byteLength" : 134472, "target" : 34963}, {"buffer" : 0, "byteOffset" : 134476, "byteLength" : 635520, "byteStride" : 32, "target" : 34962}, {"buffer" : 0, "byteOffset" : 770000, "byteLength" : 635520, "byteStride" : 32, "target" : 34962}, {"buffer" : 0, "byteOffset" : 1405524, "byteLength" : 440640, "byteStride" : 32, "target" : 34962}, {"buffer" : 0, "byteOffset" : 1846168, "byteLength" : 439872, "byteStride" : 32, "target" : 34962}], "cameras" : [{"perspective" : {"aspectRatio" : 1.3333333333333333, "yfov" : 0.43833943764363487, "zfar" : 4000, "znear" : 10}, "type" : "perspective", "name" : "Perspective"}, {"perspective" : {"aspectRatio" : 1.3333333333333333, "yfov" : 0.43833943764363487, "zfar" : 4000, "znear" : 10}, "type" : "perspective", "name" : "Top"}, {"perspective" : {"aspectRatio" : 1.3333333333333333, "yfov" : 0.43833943764363487, "zfar" : 4000, "znear" : 10}, "type" : "perspective", "name" : "Front"}, {"perspective" : {"aspectRatio" : 1.3333333333333333, "yfov" : 0.43833943764363487, "zfar" : 4000, "znear" : 10}, "type" : "perspective", "name" : "Right"}], "materials" : [{"name" : "", "pbrMetallicRoughness" : {"baseColorFactor" : [0.48627450980392156, 0, 0.027450980392156862, 1], "metallicFactor" : 0, "roughnessFactor" : 0}, "emissiveFactor" : [0, 0, 0], "alphaMode" : "OPAQUE", "doubleSided" : false}, {"name" : "", "pbrMetallicRoughness" : {"baseColorFactor" : [0.48627450980392156, 0, 0.027450980392156862, 1], "metallicFactor" : 0, "roughnessFactor" : 0}, "emissiveFactor" : [0, 0, 0], "alphaMode" : "OPAQUE", "doubleSided" : false}, {"name" : "", "pbrMetallicRoughness" : {"baseColorFactor" : [0.48627450980392156, 0, 0.027450980392156862, 1], "metallicFactor" : 0, "roughnessFactor" : 0}, "emissiveFactor" : [0, 0, 0], "alphaMode" : "OPAQUE", "doubleSided" : false}, {"name" : "", "pbrMetallicRoughness" : {"baseColorFactor" : [0.48627450980392156, 0, 0.027450980392156862, 1], "metallicFactor" : 0, "roughnessFactor" : 0}, "emissiveFactor" : [0, 0, 0], "alphaMode" : "OPAQUE", "doubleSided" : false}], "meshes" : [{"primitives" : [{"attributes" : {"POSITION" : 1, "NORMAL" : 2, "TEXCOORD_0" : 3}, "indices" : 0, "material" : 0, "mode" : 4}], "name" : "Object_1"}, {"primitives" : [{"attributes" : {"POSITION" : 5, "NORMAL" : 6, "TEXCOORD_0" : 7}, "indices" : 4, "material" : 1, "mode" : 4}], "name" : "Object_2"}, {"primitives" : [{"attributes" : {"POSITION" : 9, "NORMAL" : 10, "TEXCOORD_0" : 11}, "indices" : 8, "material" : 2, "mode" : 4}], "name" : "Object_3"}, {"primitives" : [{"attributes" : {"POSITION" : 13, "NORMAL" : 14, "TEXCOORD_0" : 15}, "indices" : 12, "material" : 3, "mode" : 4}], "name" : "Object_4"}], "nodes" : [{"mesh" : 0, "name" : "Object_1"}, {"mesh" : 1, "name" : "Object_2"}, {"mesh" : 2, "name" : "Object_3"}, {"mesh" : 3, "name" : "Object_4"}, {"children" : [0, 1, 2, 3], "name" : "A"}, {"children" : [4], "name" : "Horizontale Eisen"}, {"children" : [5], "name" : "Pipe"}, {"children" : [6], "name" : "Bewehrung_2"}, {"children" : [7], "name" : "Wandscheibe"}, {"camera" : 0, "matrix" : [-0.7030494169694661, -0.7003896041149192, -0.12319058302743921, 0, 0.4406948964213703, -0.2931366407508047, -0.8484450000545064, 0, 0.5581303840206617, -0.650788223846345, 0.51474766841227, 0, 715.3137715882741, 1034.7896349211983, 343.9693962653949, 1], "name" : "Perspective"}, {"camera" : 1, "matrix" : [2.220446049250313E-16, 0, -1, 0, 0, 1, 0, 0, 1, 0, 2.220446049250313E-16, 0, -58.465692013983045, -139.94843673947258, 16807.95442859716, 1], "name" : "Top"}, {"camera" : 2, "matrix" : [2.220446049250313E-16, 1, 0, 0, -1, 2.220446049250313E-16, 0, 0, 0, 0, 1, 0, -58.465692013983045, -2964.0256508509, -4.272354932858434, 1], "name" : "Front"}, {"camera" : 3, "matrix" : [1, 0, 0, 0, 0, -1, 1.2246467991473532E-16, 0, 0, -1.2246467991473532E-16, -1, 0, 1643.9977577679406, -139.94843673947258, -4.272354932858434, 1], "name" : "Right"}], "scene" : 0, "scenes" : [{"nodes" : [8, 9, 10, 11, 12]}]}