{"accessors" : [{"bufferView" : 0, "byteOffset" : 0, "componentType" : 5123, "count" : 9468, "type" : "SCALAR", "max" : [7898], "min" : [0]}, {"bufferView" : 1, "byteOffset" : 0, "componentType" : 5126, "count" : 7899, "type" : "VEC3", "max" : [-136.5, 6.5, -693.5], "min" : [-306.5, 2.5, -697.5], "name" : "POSITION"}, {"bufferView" : 1, "byteOffset" : 12, "componentType" : 5126, "count" : 7899, "type" : "VEC3", "max" : [1.0000044107437134, 1.0000044107437134, 1.0000044107437134], "min" : [-1.0000044107437134, -1.0000044107437134, -1.0000044107437134], "name" : "NORMAL"}, {"bufferView" : 1, "byteOffset" : 24, "componentType" : 5126, "count" : 7899, "type" : "VEC2", "max" : [0.06692732125520706, -0], "min" : [0, -0.99853515625], "name" : "TEXCOORD_0"}, {"bufferView" : 0, "byteOffset" : 18936, "componentType" : 5123, "count" : 9468, "type" : "SCALAR", "max" : [7901], "min" : [0]}, {"bufferView" : 2, "byteOffset" : 0, "componentType" : 5126, "count" : 7902, "type" : "VEC3", "max" : [-136.5, 6.5, -702.5], "min" : [-306.5, 2.5, -706.5], "name" : "POSITION"}, {"bufferView" : 2, "byteOffset" : 12, "componentType" : 5126, "count" : 7902, "type" : "VEC3", "max" : [1.0000044107437134, 1.0000044107437134, 1.0000044107437134], "min" : [-1.0000044107437134, -1.0000044107437134, -1.0000044107437134], "name" : "NORMAL"}, {"bufferView" : 2, "byteOffset" : 24, "componentType" : 5126, "count" : 7902, "type" : "VEC2", "max" : [0.06692732125520706, -0], "min" : [0, -0.99853515625], "name" : "TEXCOORD_0"}], "asset" : {"generator" : "Aspose.3D 21.11", "version" : "2.0"}, "buffers" : [{"uri" : "data:application/octet-stream;base64,", "byteLength" : 643836}], "bufferViews" : [{"buffer" : 0, "byteOffset" : 0, "byteLength" : 37872, "target" : 34963}, {"buffer" : 0, "byteOffset" : 37876, "byteLength" : 302976, "byteStride" : 32, "target" : 34962}, {"buffer" : 0, "byteOffset" : 340856, "byteLength" : 302976, "byteStride" : 32, "target" : 34962}], "cameras" : [{"perspective" : {"aspectRatio" : 1.3333333333333333, "yfov" : 0.43833943764363487, "zfar" : 4000, "znear" : 10}, "type" : "perspective", "name" : "NodeAttribute"}, {"perspective" : {"aspectRatio" : 1.3333333333333333, "yfov" : 0.43833943764363487, "zfar" : 4000, "znear" : 10}, "type" : "perspective", "name" : "NodeAttribute"}, {"perspective" : {"aspectRatio" : 1.3333333333333333, "yfov" : 0.43833943764363487, "zfar" : 4000, "znear" : 10}, "type" : "perspective", "name" : "NodeAttribute"}, {"perspective" : {"aspectRatio" : 1.3333333333333333, "yfov" : 0.43833943764363487, "zfar" : 4000, "znear" : 10}, "type" : "perspective", "name" : "NodeAttribute"}], "materials" : [{"name" : "", "pbrMetallicRoughness" : {"baseColorFactor" : [0.48627450980392156, 0, 0.027450980392156862, 1], "metallicFactor" : 0, "roughnessFactor" : 0}, "emissiveFactor" : [0, 0, 0], "alphaMode" : "OPAQUE", "doubleSided" : false}, {"name" : "", "pbrMetallicRoughness" : {"baseColorFactor" : [0.48627450980392156, 0, 0.027450980392156862, 1], "metallicFactor" : 0, "roughnessFactor" : 0}, "emissiveFactor" : [0, 0, 0], "alphaMode" : "OPAQUE", "doubleSided" : false}], "meshes" : [{"primitives" : [{"attributes" : {"POSITION" : 1, "NORMAL" : 2, "TEXCOORD_0" : 3}, "indices" : 0, "material" : 0, "mode" : 4}], "name" : "Geometry"}, {"primitives" : [{"attributes" : {"POSITION" : 5, "NORMAL" : 6, "TEXCOORD_0" : 7}, "indices" : 4, "material" : 1, "mode" : 4}], "name" : "Geometry"}], "nodes" : [{"mesh" : 0, "name" : "Model"}, {"mesh" : 1, "name" : "Model"}, {"children" : [0, 1], "name" : "Model"}, {"children" : [2], "name" : "Model"}, {"children" : [3], "name" : "Model"}, {"children" : [4], "name" : "Model"}, {"children" : [5], "name" : "Model"}, {"camera" : 0, "matrix" : [-0.4908457609938961, -0.8566148115675276, -0.1590015833803276, 0, 0.662779692916422, -0.24867297630987517, -0.70631779639961, 0, 0.5655028890924745, -0.45207611688333704, 0.6898069780538232, 0, 257.62643349183367, 1277.7492196641838, 282.44598656145945, 1], "name" : "Model"}, {"camera" : 1, "matrix" : [2.220446049250313E-16, 0, -1, 0, 0, 1, 0, 0, 1, 0, 2.220446049250313E-16, 0, -156.6836694128051, 718.5414440910682, 16632.85842701017, 1], "name" : "Model"}, {"camera" : 2, "matrix" : [2.220446049250313E-16, 1, 0, 0, -1, 2.220446049250313E-16, 0, 0, 0, 0, 1, 0, -156.6836694128051, -1855.495259034004, 70.67215446650853, 1], "name" : "Model"}, {"camera" : 3, "matrix" : [1, 0, 0, 0, 0, -1, 1.2246467991473532E-16, 0, 0, -1.2246467991473532E-16, -1, 0, 1545.7797803691221, 718.5414440910682, 70.67215446650853, 1], "name" : "Model"}], "scene" : 0, "scenes" : [{"nodes" : [6, 7, 8, 9, 10]}]}