{"accessors" : [{"bufferView" : 0, "byteOffset" : 0, "componentType" : 5123, "count" : 9468, "type" : "SCALAR", "max" : [7898], "min" : [0]}, {"bufferView" : 1, "byteOffset" : 0, "componentType" : 5126, "count" : 7899, "type" : "VEC3", "max" : [-36.5, 6.5, -343.5], "min" : [-206.5, 2.5, -347.5], "name" : "POSITION"}, {"bufferView" : 1, "byteOffset" : 12, "componentType" : 5126, "count" : 7899, "type" : "VEC3", "max" : [1.0000044107437134, 1.0000044107437134, 1.0000044107437134], "min" : [-1.0000044107437134, -1.0000044107437134, -1.0000044107437134], "name" : "NORMAL"}, {"bufferView" : 1, "byteOffset" : 24, "componentType" : 5126, "count" : 7899, "type" : "VEC2", "max" : [0.06692732125520706, -0], "min" : [0, -0.99853515625], "name" : "TEXCOORD_0"}, {"bufferView" : 0, "byteOffset" : 18936, "componentType" : 5123, "count" : 9462, "type" : "SCALAR", "max" : [7893], "min" : [0]}, {"bufferView" : 2, "byteOffset" : 0, "componentType" : 5126, "count" : 7894, "type" : "VEC3", "max" : [-36.5, 6.5, -352.5], "min" : [-206.5, 2.5, -356.5], "name" : "POSITION"}, {"bufferView" : 2, "byteOffset" : 12, "componentType" : 5126, "count" : 7894, "type" : "VEC3", "max" : [1.0000044107437134, 1.0000044107437134, 1.0000044107437134], "min" : [-1.0000044107437134, -1.0000044107437134, -1.0000044107437134], "name" : "NORMAL"}, {"bufferView" : 2, "byteOffset" : 24, "componentType" : 5126, "count" : 7894, "type" : "VEC2", "max" : [0.06692732125520706, -0], "min" : [0, -0.99853515625], "name" : "TEXCOORD_0"}], "asset" : {"generator" : "Aspose.3D 21.11", "version" : "2.0"}, "buffers" : [{"uri" : "data:application/octet-stream;base64,", "byteLength" : 643632}], "bufferViews" : [{"buffer" : 0, "byteOffset" : 0, "byteLength" : 37860, "target" : 34963}, {"buffer" : 0, "byteOffset" : 37864, "byteLength" : 302976, "byteStride" : 32, "target" : 34962}, {"buffer" : 0, "byteOffset" : 340844, "byteLength" : 302784, "byteStride" : 32, "target" : 34962}], "cameras" : [{"perspective" : {"aspectRatio" : 1.3333333333333333, "yfov" : 0.43833943764363487, "zfar" : 4000, "znear" : 10}, "type" : "perspective", "name" : "Perspective"}, {"perspective" : {"aspectRatio" : 1.3333333333333333, "yfov" : 0.43833943764363487, "zfar" : 4000, "znear" : 10}, "type" : "perspective", "name" : "Top"}, {"perspective" : {"aspectRatio" : 1.3333333333333333, "yfov" : 0.43833943764363487, "zfar" : 4000, "znear" : 10}, "type" : "perspective", "name" : "Front"}, {"perspective" : {"aspectRatio" : 1.3333333333333333, "yfov" : 0.43833943764363487, "zfar" : 4000, "znear" : 10}, "type" : "perspective", "name" : "Right"}], "materials" : [{"name" : "", "pbrMetallicRoughness" : {"baseColorFactor" : [0.48627450980392156, 0, 0.027450980392156862, 1], "metallicFactor" : 0, "roughnessFactor" : 0}, "emissiveFactor" : [0, 0, 0], "alphaMode" : "OPAQUE", "doubleSided" : false}, {"name" : "", "pbrMetallicRoughness" : {"baseColorFactor" : [0.48627450980392156, 0, 0.027450980392156862, 1], "metallicFactor" : 0, "roughnessFactor" : 0}, "emissiveFactor" : [0, 0, 0], "alphaMode" : "OPAQUE", "doubleSided" : false}], "meshes" : [{"primitives" : [{"attributes" : {"POSITION" : 1, "NORMAL" : 2, "TEXCOORD_0" : 3}, "indices" : 0, "material" : 0, "mode" : 4}], "name" : "Object_1"}, {"primitives" : [{"attributes" : {"POSITION" : 5, "NORMAL" : 6, "TEXCOORD_0" : 7}, "indices" : 4, "material" : 1, "mode" : 4}], "name" : "Object_2"}], "nodes" : [{"mesh" : 0, "name" : "Object_1"}, {"mesh" : 1, "name" : "Object_2"}, {"children" : [0, 1], "name" : "B"}, {"children" : [2], "name" : "Horizontale Eisen"}, {"children" : [3], "name" : "Pipe"}, {"children" : [4], "name" : "Bewehrung_2"}, {"children" : [5], "name" : "Wandscheibe"}, {"camera" : 0, "matrix" : [-0.7030494169694661, -0.7003896041149192, -0.12319058302743921, 0, 0.4406948964213703, -0.2931366407508047, -0.8484450000545064, 0, 0.5581303840206617, -0.650788223846345, 0.51474766841227, 0, 715.3137715882741, 1034.7896349211983, 343.9693962653949, 1], "name" : "Perspective"}, {"camera" : 1, "matrix" : [2.220446049250313E-16, 0, -1, 0, 0, 1, 0, 0, 1, 0, 2.220446049250313E-16, 0, -58.465692013983045, -139.94843673947258, 16807.95442859716, 1], "name" : "Top"}, {"camera" : 2, "matrix" : [2.220446049250313E-16, 1, 0, 0, -1, 2.220446049250313E-16, 0, 0, 0, 0, 1, 0, -58.465692013983045, -2964.0256508509, -4.272354932858434, 1], "name" : "Front"}, {"camera" : 3, "matrix" : [1, 0, 0, 0, 0, -1, 1.2246467991473532E-16, 0, 0, -1.2246467991473532E-16, -1, 0, 1643.9977577679406, -139.94843673947258, -4.272354932858434, 1], "name" : "Right"}], "scene" : 0, "scenes" : [{"nodes" : [6, 7, 8, 9, 10]}]}