{"accessors" : [{"bufferView" : 0, "byteOffset" : 0, "componentType" : 5125, "count" : 65892, "type" : "SCALAR", "max" : [65891], "min" : [0]}, {"bufferView" : 1, "byteOffset" : 0, "componentType" : 5126, "count" : 65892, "type" : "VEC3", "max" : [37.78302001953125, 40.032283782958984, 0.004063999745994806], "min" : [-303.6274719238281, -185.8850555419922, -705.1019287109375], "name" : "POSITION"}, {"bufferView" : 1, "byteOffset" : 12, "componentType" : 5126, "count" : 65892, "type" : "VEC3", "max" : [0.19164995849132538, 0.11860594898462296, 0.9939702749252319], "min" : [-1.0000044107437134, -1.0000042915344238, -1.0000044107437134], "name" : "NORMAL"}, {"bufferView" : 1, "byteOffset" : 24, "componentType" : 5126, "count" : 65892, "type" : "VEC3", "max" : [1, 1, 1], "min" : [0, 0, 0], "name" : "COLOR_0"}], "asset" : {"generator" : "Aspose.3D 21.11", "version" : "2.0"}, "buffers" : [{"uri" : "data:application/octet-stream;base64,", "byteLength" : 2635688}], "bufferViews" : [{"buffer" : 0, "byteOffset" : 0, "byteLength" : 263568, "target" : 34963}, {"buffer" : 0, "byteOffset" : 263572, "byteLength" : 2372112, "byteStride" : 36, "target" : 34962}], "cameras" : [{"perspective" : {"aspectRatio" : 1.3333333333333333, "yfov" : 0.43833943764363487, "zfar" : 4000, "znear" : 10}, "type" : "perspective", "name" : "NodeAttribute"}, {"perspective" : {"aspectRatio" : 1.3333333333333333, "yfov" : 0.43833943764363487, "zfar" : 4000, "znear" : 10}, "type" : "perspective", "name" : "NodeAttribute"}, {"perspective" : {"aspectRatio" : 1.3333333333333333, "yfov" : 0.43833943764363487, "zfar" : 4000, "znear" : 10}, "type" : "perspective", "name" : "NodeAttribute"}, {"perspective" : {"aspectRatio" : 1.3333333333333333, "yfov" : 0.43833943764363487, "zfar" : 4000, "znear" : 10}, "type" : "perspective", "name" : "NodeAttribute"}], "materials" : [{"name" : "", "pbrMetallicRoughness" : {"baseColorFactor" : [0.7803921568627451, 0, 0, 1], "metallicFactor" : 0, "roughnessFactor" : 0}, "emissiveFactor" : [0, 0, 0], "alphaMode" : "OPAQUE", "doubleSided" : false}], "meshes" : [{"primitives" : [{"attributes" : {"POSITION" : 1, "NORMAL" : 2, "COLOR_0" : 3}, "indices" : 0, "material" : 0, "mode" : 4}], "name" : "Geometry"}], "nodes" : [{"mesh" : 0, "name" : "Model"}, {"children" : [0], "name" : "Model"}, {"children" : [1], "name" : "Model"}, {"camera" : 0, "matrix" : [-0.4268077586943617, -0.8659112429278242, -0.26083108804259997, 0, 0.47996181421387973, 0.027554808935497443, -0.8768565386658467, 0, 0.7664670860609848, -0.4994381361847722, 0.4038437248608229, 0, 274.7571426886719, 1393.578777915137, 511.89106049930876, 1], "name" : "Model"}, {"camera" : 1, "matrix" : [2.220446049250313E-16, 0, -1, 0, 0, 1, 0, 0, 1, 0, 2.220446049250313E-16, 0, -15.936242185546945, 150.85053809008832, 16533.61003671282, 1], "name" : "Model"}, {"camera" : 2, "matrix" : [2.220446049250313E-16, 1, 0, 0, -1, 2.220446049250313E-16, 0, 0, 0, 0, 1, 0, -15.936242185546945, -1773.0808364704508, -28.57623583091781, 1], "name" : "Model"}, {"camera" : 3, "matrix" : [1, 0, 0, 0, 0, -1, 1.2246467991473532E-16, 0, 0, -1.2246467991473532E-16, -1, 0, 1186.4461856236603, 150.85053809008832, -28.57623583091781, 1], "name" : "Model"}], "scene" : 0, "scenes" : [{"nodes" : [2, 3, 4, 5, 6]}]}