{"accessors" : [{"bufferView" : 0, "byteOffset" : 0, "componentType" : 5123, "count" : 45, "type" : "SCALAR", "max" : [35], "min" : [0]}, {"bufferView" : 1, "byteOffset" : 0, "componentType" : 5126, "count" : 36, "type" : "VEC3", "max" : [29.999990463256836, 40, 0], "min" : [-299.9999694824219, -40, -700], "name" : "POSITION"}, {"bufferView" : 1, "byteOffset" : 12, "componentType" : 5126, "count" : 36, "type" : "VEC3", "max" : [3.3306838969520466E-16, 0, 1.0000044107437134], "min" : [-1.0000044107437134, -1.0000044107437134, -1.0000044107437134], "name" : "NORMAL"}, {"bufferView" : 1, "byteOffset" : 24, "componentType" : 5126, "count" : 36, "type" : "VEC3", "max" : [0, 0, 0], "min" : [0, 0, 0], "name" : "COLOR_0"}, {"bufferView" : 0, "byteOffset" : 92, "componentType" : 5123, "count" : 6, "type" : "SCALAR", "max" : [4], "min" : [0]}, {"bufferView" : 2, "byteOffset" : 0, "componentType" : 5126, "count" : 5, "type" : "VEC3", "max" : [29.999990463256836, 40, 0], "min" : [-30, -40, 0], "name" : "POSITION"}, {"bufferView" : 2, "byteOffset" : 12, "componentType" : 5126, "count" : 5, "type" : "VEC3", "max" : [3.3306838969520466E-16, 0, -1.0000044107437134], "min" : [3.3306838969520466E-16, 0, -1.0000044107437134], "name" : "NORMAL"}, {"bufferView" : 2, "byteOffset" : 24, "componentType" : 5126, "count" : 5, "type" : "VEC3", "max" : [0, 0, 0], "min" : [0, 0, 0], "name" : "COLOR_0"}], "asset" : {"generator" : "Aspose.3D 21.11", "version" : "2.0"}, "buffers" : [{"uri" : "data:application/octet-stream;base64,", "byteLength" : 1952}], "bufferViews" : [{"buffer" : 0, "byteOffset" : 0, "byteLength" : 104, "target" : 34963}, {"buffer" : 0, "byteOffset" : 108, "byteLength" : 1620, "byteStride" : 36, "target" : 34962}, {"buffer" : 0, "byteOffset" : 1732, "byteLength" : 216, "byteStride" : 36, "target" : 34962}], "cameras" : [{"perspective" : {"aspectRatio" : 1.3333333333333333, "yfov" : 0.43833943764363487, "zfar" : 4000, "znear" : 10}, "type" : "perspective", "name" : "NodeAttribute"}, {"perspective" : {"aspectRatio" : 1.3333333333333333, "yfov" : 0.43833943764363487, "zfar" : 4000, "znear" : 10}, "type" : "perspective", "name" : "NodeAttribute"}, {"perspective" : {"aspectRatio" : 1.3333333333333333, "yfov" : 0.43833943764363487, "zfar" : 4000, "znear" : 10}, "type" : "perspective", "name" : "NodeAttribute"}, {"perspective" : {"aspectRatio" : 1.3333333333333333, "yfov" : 0.43833943764363487, "zfar" : 4000, "znear" : 10}, "type" : "perspective", "name" : "NodeAttribute"}], "materials" : [{"name" : "", "pbrMetallicRoughness" : {"baseColorFactor" : [0.9803921568627451, 0.9803921568627451, 0.9803921568627451, 1], "metallicFactor" : 0, "roughnessFactor" : 0}, "emissiveFactor" : [0, 0, 0], "alphaMode" : "OPAQUE", "doubleSided" : false}, {"name" : "", "pbrMetallicRoughness" : {"baseColorFactor" : [0.9803921568627451, 0.9803921568627451, 0.9803921568627451, 1], "metallicFactor" : 0, "roughnessFactor" : 0}, "emissiveFactor" : [0, 0, 0], "alphaMode" : "OPAQUE", "doubleSided" : false}], "meshes" : [{"primitives" : [{"attributes" : {"POSITION" : 1, "NORMAL" : 2, "COLOR_0" : 3}, "indices" : 0, "material" : 0, "mode" : 4}], "name" : "Geometry"}, {"primitives" : [{"attributes" : {"POSITION" : 5, "NORMAL" : 6, "COLOR_0" : 7}, "indices" : 4, "material" : 1, "mode" : 4}], "name" : "Geometry"}], "nodes" : [{"mesh" : 0, "name" : "Model"}, {"mesh" : 1, "name" : "Model"}, {"children" : [0, 1], "name" : "Model"}, {"children" : [2], "name" : "Model"}, {"camera" : 0, "matrix" : [-0.4268077586943617, -0.8659112429278242, -0.26083108804259997, 0, 0.47996181421387973, 0.027554808935497443, -0.8768565386658467, 0, 0.7664670860609848, -0.4994381361847722, 0.4038437248608229, 0, 274.7571426886719, 1393.578777915137, 511.89106049930876, 1], "name" : "Model"}, {"camera" : 1, "matrix" : [2.220446049250313E-16, 0, -1, 0, 0, 1, 0, 0, 1, 0, 2.220446049250313E-16, 0, -15.936242185546945, 150.85053809008832, 16533.61003671282, 1], "name" : "Model"}, {"camera" : 2, "matrix" : [2.220446049250313E-16, 1, 0, 0, -1, 2.220446049250313E-16, 0, 0, 0, 0, 1, 0, -15.936242185546945, -1773.0808364704508, -28.57623583091781, 1], "name" : "Model"}, {"camera" : 3, "matrix" : [1, 0, 0, 0, 0, -1, 1.2246467991473532E-16, 0, 0, -1.2246467991473532E-16, -1, 0, 1186.4461856236603, 150.85053809008832, -28.57623583091781, 1], "name" : "Model"}], "scene" : 0, "scenes" : [{"nodes" : [3, 4, 5, 6, 7]}]}