# Rhino

g Elastomer
o object_1
v 5 91 -50
v 25 91 -50
v 5 91 -65
v 25 91 -65
v 5 91 -57.5
v 11.66666698 91 -65
v 18.33333397 91 -65
v 25 91 -57.5
v 18.33333397 91 -50
v 11.66666698 91 -50
v 5 93.5 -65
v 5 93.5 -50
v 5 93.5 -57.5
v 25 93.5 -65
v 11.66666698 93.5 -65
v 18.33333397 93.5 -65
v 25 93.5 -50
v 25 93.5 -57.5
v 18.33333397 93.5 -50
v 11.66666698 93.5 -50
vt 0.9985351563 0.5
vt 0.3333333433 0.5
vt 0.9985351563 0.9985351563
vt 0.3333333433 0.9985351563
vt 0.9985351563 0.7492675781
vt 0.7768012285 0.9985351563
vt 0.5550672412 0.9985351563
vt 0.3333333433 0.7492675781
vt 0.5550672412 0.5
vt 0.7768012285 0.5
vt 0.1652018279 0
vt 0.08333333582 0
vt 0.1652018279 0.5
vt 0.08333333582 0.5
vt 0.1652018279 0.25
vt 0.08333333582 0.25
vt 0.3318684995 0
vt 0.25 0
vt 0.3318684995 0.6666666865
vt 0.25 0.6666666865
vt 0.3318684995 0.2222222239
vt 0.3318684995 0.4444444478
vt 0.25 0.4444444478
vt 0.25 0.2222222239
vt 0.08186849207 0
vt 0 0
vt 0.08186849207 0.5
vt 0 0.5
vt 0.08186849207 0.25
vt 0 0.25
vt 0.2485351563 0
vt 0.1666666716 0
vt 0.2485351563 0.6666666865
vt 0.1666666716 0.6666666865
vt 0.2485351563 0.2222222239
vt 0.2485351563 0.4444444478
vt 0.1666666716 0.4444444478
vt 0.1666666716 0.2222222239
vt 0.9985351563 0
vt 0.3333333433 0
vt 0.9985351563 0.4985351563
vt 0.3333333433 0.4985351563
vt 0.9985351563 0.2492675781
vt 0.7768012285 0.4985351563
vt 0.5550672412 0.4985351563
vt 0.3333333433 0.2492675781
vt 0.5550672412 0
vt 0.7768012285 0
vn 0 -1 0
vn 0 -1 0
vn 0 -1 0
vn 0 -1 0
vn 0 -1 0
vn 0 -1 0
vn 0 -1 0
vn 0 -1 0
vn 0 -1 0
vn 0 -1 0
vn -1 0 0
vn -1 0 0
vn -1 0 0
vn -1 0 0
vn -1 0 0
vn -1 0 0
vn 0 0 -1
vn 0 0 -1
vn 0 0 -1
vn 0 0 -1
vn 0 0 -1
vn 0 0 -1
vn 0 0 -1
vn 0 0 -1
vn 1 0 0
vn 1 0 0
vn 1 0 0
vn 1 0 0
vn 1 0 0
vn 1 0 0
vn 0 0 1
vn 0 0 1
vn 0 0 1
vn 0 0 1
vn 0 0 1
vn 0 0 1
vn 0 0 1
vn 0 0 1
vn 0 1 0
vn 0 1 0
vn 0 1 0
vn 0 1 0
vn 0 1 0
vn 0 1 0
vn 0 1 0
vn 0 1 0
vn 0 1 0
vn 0 1 0
f 10/10/10 1/1/1 5/5/5 3/3/3 6/6/6 7/7/7 4/4/4 8/8/8 2/2/2 9/9/9
f 11/12/12 3/11/11 5/15/15 1/13/13 12/14/14 13/16/16
f 16/24/24 14/18/18 4/17/17 7/21/21 6/22/22 3/19/19 11/20/20 15/23/23
f 17/26/26 2/25/25 8/29/29 4/27/27 14/28/28 18/30/30
f 20/38/38 12/32/32 1/31/31 10/35/35 9/36/36 2/33/33 17/34/34 19/37/37
f 13/43/43 12/39/39 20/48/48 19/47/47 17/40/40 18/46/46 14/42/42 16/45/45 15/44/44 11/41/41
